<svg id="Layer_1" data-name="Layer 1" xmlns="http://www.w3.org/2000/svg" viewBox="0 0 250 250"><path d="M166.17,114.51c-13.49,0-15.37,13.47-15.37,13.47h28.69S179.67,114.51,166.17,114.51Z"/><path d="M101.08,128H75.65v23.34H98.17c.38,0,1,0,1.62,0,3.63-.08,10.49-1.14,10.49-11.35C110.28,127.85,101.08,128,101.08,128Z"/><path d="M125,20.32A104.68,104.68,0,1,0,229.68,125,104.68,104.68,0,0,0,125,20.32Zm22,64.32h36V95.39H147Zm-18.22,56.42c0,26.66-27.74,25.78-27.74,25.78H55.63V79.49h45.45c13.81,0,24.71,7.63,24.71,23.26s-13.33,16.62-13.33,16.62C130,119.37,128.82,141.06,128.82,141.06Zm67.42-1.43H151c0,16.23,15.37,15.21,15.37,15.21,14.52,0,14-9.4,14-9.4h15.38c0,24.94-29.9,23.23-29.9,23.23-35.86,0-33.56-33.39-33.56-33.39s0-33.56,33.56-33.56C201.19,101.72,196.24,139.63,196.24,139.63Z"/><path d="M107.26,104.11c0-9.09-6.18-9.09-6.18-9.09H75.65v19.49H99.51C103.62,114.51,107.26,113.19,107.26,104.11Z"/></svg>