<svg id="Layer_1" data-name="Layer 1" xmlns="http://www.w3.org/2000/svg" viewBox="0 0 250 250"><path d="M124.8,229.93c-29.67,0-59.35-.1-89,.07a15.42,15.42,0,0,1-15.62-12.89,16.62,16.62,0,0,1-.15-2.34Q20,125,20,35.31A14.88,14.88,0,0,1,35.1,20.07c9.5-.07,19,0,28.49,0q75.38,0,150.74-.05c8.12,0,13.64,5.52,15,10.69a18,18,0,0,1,.65,4.43q0,89.82,0,179.65a14.86,14.86,0,0,1-15,15.14c-11.21.08-22.41,0-33.61,0ZM132,112.23c0-4.21-.08-7.81,0-11.4,0-1.78-.47-2.38-2.32-2.36-8.58.09-17.16.11-25.74,0-2.06,0-2.49.67-2.49,2.59q.07,47.85,0,95.71c0,2,.54,2.62,2.54,2.6q13.35-.13,26.72,0c2,0,2.52-.63,2.51-2.59q-.12-24.08,0-48.15a59.12,59.12,0,0,1,.82-10c1.21-6.79,4.31-12.28,11.57-14.09a27.15,27.15,0,0,1,6.8-.64c7.57.1,12.19,3.59,13.87,11a58.24,58.24,0,0,1,1.27,12.23c.14,16.51.09,33,0,49.53,0,1.93.52,2.64,2.55,2.62q13.35-.13,26.72,0c1.92,0,2.41-.63,2.41-2.49q-.09-26.64,0-53.26a93.49,93.49,0,0,0-2-21.63c-2-8.4-5.65-15.76-13.2-20.6a35,35,0,0,0-15.33-5C162,95.63,155.42,95.56,149,98A33.86,33.86,0,0,0,132,112.23ZM50.77,149c0,16,0,32,0,47.94,0,1.94.62,2.45,2.47,2.43q13.44-.1,26.91,0c1.72,0,2.39-.46,2.39-2.34q-.07-48.13,0-96.27c0-1.9-.69-2.27-2.4-2.26-8.84.07-17.68,0-26.52,0-2.81,0-2.81,0-2.81,2.73ZM66.51,85.05A18.23,18.23,0,1,0,48.4,66.83,18.13,18.13,0,0,0,66.51,85.05Z"/></svg>