<svg id="Layer_1" data-name="Layer 1" xmlns="http://www.w3.org/2000/svg" viewBox="0 0 250 250"><defs><style>.cls-1,.cls-2{fill:#181616;}.cls-1{fill-rule:evenodd;}</style></defs><path class="cls-1" d="M125,22.61a105,105,0,0,0-33.19,204.6c5.25,1,7.18-2.28,7.18-5.06,0-2.5-.1-10.77-.15-19.54-29.2,6.35-35.36-12.39-35.36-12.39-4.78-12.13-11.66-15.36-11.66-15.36-9.53-6.51.72-6.38.72-6.38,10.54.74,16.09,10.82,16.09,10.82,9.36,16,24.56,11.41,30.55,8.73.94-6.79,3.66-11.42,6.66-14C82.53,171.34,58,162.33,58,122.11A40.66,40.66,0,0,1,68.83,93.93c-1.09-2.64-4.68-13.32,1-27.78,0,0,8.81-2.82,28.87,10.76a99.66,99.66,0,0,1,52.58,0c20-13.58,28.84-10.76,28.84-10.76,5.71,14.46,2.12,25.14,1,27.78A40.55,40.55,0,0,1,192,122.11c0,40.32-24.56,49.2-47.93,51.8,3.76,3.25,7.12,9.64,7.12,19.44,0,14-.12,25.35-.12,28.8,0,2.8,1.89,6.07,7.21,5A105,105,0,0,0,125,22.61Z"/><path class="cls-2" d="M59.78,173.34c-.23.52-1.05.68-1.8.32s-1.18-1-.94-1.58,1.05-.68,1.81-.33,1.2,1.07.93,1.59Zm-1.29-1"/><path class="cls-2" d="M64,178.08c-.51.47-1.48.25-2.15-.48a1.62,1.62,0,0,1-.31-2.19c.52-.46,1.47-.24,2.16.49s.82,1.71.3,2.18ZM63,177"/><path class="cls-2" d="M68.17,184.13c-.64.45-1.69,0-2.34-.91s-.65-2.05,0-2.5,1.69,0,2.35.88.64,2.07,0,2.53Zm0,0"/><path class="cls-2" d="M73.84,190c-.57.63-1.8.46-2.69-.4s-1.18-2-.6-2.69,1.82-.45,2.72.41,1.19,2.05.57,2.68Zm0,0"/><path class="cls-2" d="M81.67,193.36c-.26.82-1.44,1.2-2.63.85s-2-1.33-1.72-2.16,1.43-1.21,2.63-.84,2,1.31,1.72,2.15Zm0,0"/><path class="cls-2" d="M90.26,194c0,.86-1,1.58-2.23,1.6s-2.27-.67-2.28-1.53,1-1.58,2.24-1.6,2.27.67,2.27,1.53Zm0,0"/><path class="cls-2" d="M98.25,192.63c.15.84-.71,1.71-2,1.94s-2.35-.3-2.51-1.13.74-1.74,1.95-2,2.36.29,2.51,1.15Zm0,0"/></svg>