<svg id="Layer_1" data-name="Layer 1" xmlns="http://www.w3.org/2000/svg" viewBox="0 0 250 250"><path d="M125,38.92c28,0,31.36.11,42.43.61,10.24.47,15.8,2.18,19.5,3.62a34.74,34.74,0,0,1,19.92,19.92c1.44,3.7,3.15,9.26,3.62,19.5.5,11.07.61,14.39.61,42.43s-.11,31.36-.61,42.43c-.47,10.24-2.18,15.8-3.62,19.5a34.74,34.74,0,0,1-19.92,19.92c-3.7,1.44-9.26,3.15-19.5,3.62-11.07.5-14.39.61-42.43.61s-31.36-.11-42.43-.61c-10.24-.47-15.8-2.18-19.5-3.62a34.74,34.74,0,0,1-19.92-19.92c-1.44-3.7-3.15-9.26-3.62-19.5C39,156.36,38.92,153,38.92,125s.11-31.36.61-42.43c.47-10.24,2.18-15.8,3.62-19.5A34.74,34.74,0,0,1,63.07,43.15c3.7-1.44,9.26-3.15,19.5-3.62C93.64,39,97,38.92,125,38.92M125,20c-28.52,0-32.09.12-43.29.63S62.9,22.92,56.22,25.51A53.67,53.67,0,0,0,25.51,56.22c-2.59,6.68-4.37,14.31-4.88,25.49S20,96.48,20,125s.12,32.09.63,43.29,2.29,18.81,4.88,25.49a53.67,53.67,0,0,0,30.71,30.71c6.68,2.59,14.31,4.37,25.49,4.88S96.48,230,125,230s32.09-.12,43.29-.63,18.81-2.29,25.49-4.88a53.67,53.67,0,0,0,30.71-30.71c2.59-6.68,4.37-14.31,4.88-25.49S230,153.52,230,125s-.12-32.09-.63-43.29-2.29-18.81-4.88-25.49a53.67,53.67,0,0,0-30.71-30.71c-6.68-2.59-14.31-4.37-25.49-4.88S153.52,20,125,20Z"/><path d="M125,71.08A53.92,53.92,0,1,0,178.92,125,53.92,53.92,0,0,0,125,71.08ZM125,160a35,35,0,1,1,35-35A35,35,0,0,1,125,160Z"/><circle cx="181.05" cy="68.95" r="12.6"/></svg>