<svg id="Layer_1" data-name="Layer 1" xmlns="http://www.w3.org/2000/svg" viewBox="0 0 250 250"><defs><style>.cls-1{fill:#231f20;}</style></defs><path class="cls-1" d="M125,20A105,105,0,1,0,230,125,105.12,105.12,0,0,0,125,20ZM72.79,76.83H177.21A17.2,17.2,0,0,1,189.48,82L125,138.14,60.52,82A17.2,17.2,0,0,1,72.79,76.83Zm121.65,79.11a17.25,17.25,0,0,1-17.23,17.23H72.79a17.25,17.25,0,0,1-17.23-17.23V94.06c0-.28,0-.57,0-.87s0-.58.06-.86l16.47,14.34,47.51,41.38a8.28,8.28,0,0,0,5.37,2,8.17,8.17,0,0,0,5.37-2l64-55.72c.05.57.09,1.14.09,1.73Z"/></svg>